<svg xmlns="http://www.w3.org/2000/svg" viewBox="0 0 960 600"><rect width="960" height="600" rx="26" fill="#f1f6f2"/><rect x="58" y="65" width="255" height="470" rx="20" fill="#fff"/><text x="91" y="116" font-family="Arial" font-size="22" fill="#27362d">Incident context</text><rect x="91" y="148" width="190" height="70" rx="12" fill="#fff1ed"/><text x="109" y="178" font-family="Arial" font-size="14" fill="#bf5141">SEV1 · Checkout</text><text x="109" y="199" font-family="Arial" font-size="12" fill="#68726c">18.4% errors after deploy</text><path d="M110 260h150M110 290h120M110 360h155M110 390h130M110 460h150" stroke="#dfe7e1" stroke-width="10" stroke-linecap="round"/><path d="M330 300h160" stroke="#8caf98" stroke-width="5" stroke-dasharray="8 12"/><path d="m470 282 22 18-22 18" fill="none" stroke="#8caf98" stroke-width="5" stroke-linecap="round" stroke-linejoin="round"/><rect x="510" y="120" width="370" height="355" rx="20" fill="#fff"/><circle cx="580" cy="205" r="38" fill="#d9e9df"/><text x="565" y="212" font-family="Arial" font-size="18" fill="#426e55">PS</text><text x="640" y="192" font-family="Arial" font-size="21" fill="#26342c">Priya Shah</text><text x="640" y="220" font-family="Arial" font-size="14" fill="#78827b">Primary on-call · Platform</text><rect x="552" y="270" width="288" height="95" rx="12" fill="#f4f7f4"/><text x="573" y="308" font-family="Arial" font-size="14" fill="#526058">Full timeline, logs and deploy diff</text><text x="573" y="334" font-family="Arial" font-size="14" fill="#526058">included in the handoff.</text><rect x="552" y="397" width="140" height="42" rx="21" fill="#171b18"/><text x="580" y="424" font-family="Arial" font-size="14" fill="#fff">Page on-call</text></svg>
