<svg xmlns="http://www.w3.org/2000/svg" viewBox="0 0 960 600"><rect width="960" height="600" rx="26" fill="#f3f3f8"/><text x="62" y="85" font-family="Arial" font-size="23" fill="#25283a">Reliability overview</text><text x="62" y="112" font-family="Arial" font-size="14" fill="#82859a">Past 7 days · All production services</text><g><rect x="60" y="150" width="250" height="118" rx="16" fill="#fff"/><rect x="335" y="150" width="250" height="118" rx="16" fill="#fff"/><rect x="610" y="150" width="290" height="118" rx="16" fill="#fff"/></g><g font-family="Arial" fill="#777b8b" font-size="14"><text x="85" y="190">Incidents resolved</text><text x="360" y="190">Mean time to resolve</text><text x="635" y="190">On-call load</text></g><g font-family="Arial" fill="#272a39" font-size="34"><text x="85" y="237">1,240</text><text x="360" y="237">6m 42s</text><text x="635" y="237">−28%</text></g><rect x="60" y="292" width="840" height="250" rx="16" fill="#fff"/><path d="M100 480 190 435 285 452 380 390 470 408 570 350 670 366 790 318 860 330" fill="none" stroke="#6675a4" stroke-width="7" stroke-linecap="round" stroke-linejoin="round"/><path d="M100 490h760M100 435h760M100 380h760M100 325h760" stroke="#ececf1" stroke-width="2"/><g fill="#6675a4"><circle cx="190" cy="435" r="7"/><circle cx="380" cy="390" r="7"/><circle cx="570" cy="350" r="7"/><circle cx="790" cy="318" r="7"/></g></svg>
