<svg xmlns="http://www.w3.org/2000/svg" viewBox="0 0 960 600"><rect width="960" height="600" rx="26" fill="#f5f7f8"/><rect x="40" y="38" width="880" height="78" rx="14" fill="#fff"/><circle cx="81" cy="77" r="13" fill="#de705c"/><text x="115" y="85" font-family="Arial" font-size="22" fill="#252b30">Incident timeline · checkout-api</text><path d="M130 205h700M130 320h700M130 435h700" stroke="#d6dde1" stroke-width="6" stroke-linecap="round"/><path d="M210 205v230M420 205v115M630 320v115M790 205v230" stroke="#9bb3bb" stroke-width="5" stroke-dasharray="8 12"/><circle cx="210" cy="205" r="20" fill="#df705c"/><circle cx="420" cy="320" r="20" fill="#d5a449"/><circle cx="630" cy="320" r="20" fill="#708eab"/><circle cx="790" cy="435" r="20" fill="#559875"/><g font-family="Arial" font-size="16" fill="#69737a"><text x="150" y="265">Deploy v2.18</text><text x="354" y="380">5xx spike</text><text x="568" y="265">DB saturation</text><text x="735" y="500">Recovery</text></g><rect x="345" y="143" width="150" height="44" rx="11" fill="#fff"/><text x="365" y="171" font-family="Arial" font-size="14" fill="#69737a">14:32 · release</text></svg>
